Coordinates
version=1
nRows=22
nColumns=24
inDegrees=yes

Units are S.I. units (second, meters, Newtons, ...)
Angles are in degrees.

endheader
time	pelvis_tilt	pelvis_list	pelvis_rotation	pelvis_tx	pelvis_ty	pelvis_tz	hip_flexion_r	hip_adduction_r	hip_rotation_r	knee_angle_r	ankle_angle_r	subtalar_angle_r	mtp_angle_r	hip_flexion_l	hip_adduction_l	hip_rotation_l	knee_angle_l	ankle_angle_l	subtalar_angle_l	mtp_angle_l	lumbar_extension	lumbar_bending	lumbar_rotation
      4.70000000	     52.24558886	     -6.30765034	     -0.30259570	     -0.57008933	      1.09726689	     -0.08871795	     21.46642961	    -13.64370509	     -3.35104252	    -69.87802381	    -11.76976464	      5.21223877	      0.00000000	     22.99620523	    -10.27776103	      7.86977387	     -0.05489108	    -36.40164948	     13.96919881	      0.00000000	      0.00000000	      0.00000000	      0.00000000
      4.71000000	     52.24027805	     -6.30479514	     -0.30594722	     -0.57009289	      1.09725629	     -0.08872154	     21.47109769	    -13.64875784	     -3.34969933	    -69.87374474	    -11.76985860	      5.21201657	      0.00000000	     22.99947555	    -10.27187384	      7.87961488	     -0.05756461	    -36.41019783	     13.96806579	      0.00000000	      0.00000000	      0.00000000	      0.00000000
      4.72000000	     52.23639727	     -6.30271497	     -0.30854944	     -0.57009685	      1.09725151	     -0.08872852	     21.47348691	    -13.65357875	     -3.34855352	    -69.86924232	    -11.76959094	      5.21244401	      0.00000000	     23.00148956	    -10.26617370	      7.88480962	     -0.06128486	    -36.41156740	     13.96948051	      0.00000000	      0.00000000	      0.00000000	      0.00000000
      4.73000000	     52.23476577	     -6.30242271	     -0.30924332	     -0.57010152	      1.09725968	     -0.08873601	     21.47357657	    -13.65711497	     -3.34846661	    -69.86536149	    -11.76899019	      5.21403079	      0.00000000	     23.00172595	    -10.26196893	      7.88541226	     -0.06583088	    -36.40609599	     13.97344237	      0.00000000	      0.00000000	      0.00000000	      0.00000000
      4.74000000	     52.23554986	     -6.30419332	     -0.30766514	     -0.57010549	      1.09727715	     -0.08874087	     21.47159190	    -13.65860397	     -3.35015044	    -69.86270984	    -11.76814790	      5.21678713	      0.00000000	     23.00022565	    -10.26012009	      7.88213930	     -0.07053670	    -36.39623987	     13.97942200	      0.00000000	      0.00000000	      0.00000000	      0.00000000
      4.75000000	     52.23835600	     -6.30782606	     -0.30451905	     -0.57010452	      1.09729155	     -0.08874402	     21.46791168	    -13.65800494	     -3.35345968	    -69.86135766	    -11.76714335	      5.22027270	      0.00000000	     22.99741617	    -10.26082833	      7.87636045	     -0.07482963	    -36.38555529	     13.98656523	      0.00000000	      0.00000000	      0.00000000	      0.00000000
      4.76000000	     52.24235964	     -6.31305477	     -0.30115418	     -0.57009882	      1.09728978	     -0.08874684	     21.46315846	    -13.65620920	     -3.35713208	    -69.86082426	    -11.76604255	      5.22378383	      0.00000000	     22.99378226	    -10.26364972	      7.86996556	     -0.07866349	    -36.37759904	     13.99387398	      0.00000000	      0.00000000	      0.00000000	      0.00000000
      4.77000000	     52.24668932	     -6.31920226	     -0.29886236	     -0.57009449	      1.09726962	     -0.08875069	     21.45809216	    -13.65457982	     -3.35935775	    -69.86039094	    -11.76495736	      5.22659762	      0.00000000	     22.99003640	    -10.26779964	      7.86490771	     -0.08231996	    -36.37489972	     14.00023112	      0.00000000	      0.00000000	      0.00000000	      0.00000000
      4.78000000	     52.25095365	     -6.32472410	     -0.29829418	     -0.57009217	      1.09724514	     -0.08876081	     21.45341990	    -13.65407511	     -3.35879953	    -69.85947282	    -11.76409464	      5.22819653	      0.00000000	     22.98746233	    -10.27238826	      7.86246587	     -0.08568986	    -36.37819055	     14.00434158	      0.00000000	      0.00000000	      0.00000000	      0.00000000
      4.79000000	     52.25492248	     -6.32796670	     -0.29915286	     -0.57008960	      1.09723406	     -0.08877773	     21.44977230	    -13.65471383	     -3.35533013	    -69.85780793	    -11.76372044	      5.22839264	      0.00000000	     22.98720247	    -10.27615442	      7.86264278	     -0.08804405	    -36.38623992	     14.00482187	      0.00000000	      0.00000000	      0.00000000	      0.00000000
      4.80000000	     52.25785509	     -6.32837075	     -0.30027246	     -0.57008947	      1.09723973	     -0.08879147	     21.44771554	    -13.65585692	     -3.35001904	    -69.85545349	    -11.76403280	      5.22731456	      0.00000000	     22.98907717	    -10.27770620	      7.86417174	     -0.08864355	    -36.39649097	     14.00051256	      0.00000000	      0.00000000	      0.00000000	      0.00000000
      4.81000000	     52.25883662	     -6.32674161	     -0.30030738	     -0.57009509	      1.09725012	     -0.08879481	     21.44752051	    -13.65696504	     -3.34451370	    -69.85267822	    -11.76503714	      5.22530168	      0.00000000	     22.99166670	    -10.27661794	      7.86522635	     -0.08735193	    -36.40619742	     13.99088524	      0.00000000	      0.00000000	      0.00000000	      0.00000000
      4.82000000	     52.25787674	     -6.32469771	     -0.29876161	     -0.57010574	      1.09725480	     -0.08879119	     21.44874359	    -13.65807927	     -3.34029418	    -69.84989276	    -11.76652892	      5.22278555	      0.00000000	     22.99373230	    -10.27401557	      7.86442077	     -0.08455481	    -36.41340281	     13.97632991	      0.00000000	      0.00000000	      0.00000000	      0.00000000
      4.83000000	     52.25627984	     -6.32368374	     -0.29629705	     -0.57011541	      1.09725394	     -0.08878895	     21.45014938	    -13.65953951	     -3.33820201	    -69.84762867	    -11.76819849	      5.22019182	      0.00000000	     22.99526591	    -10.27200625	      7.86143683	     -0.08072278	    -36.41731122	     13.95813158	      0.00000000	      0.00000000	      0.00000000	      0.00000000
      4.84000000	     52.25565742	     -6.32413217	     -0.29386504	     -0.57011674	      1.09725112	     -0.08879502	     21.45041200	    -13.66127609	     -3.33837103	    -69.84637652	    -11.76979068	      5.21785131	      0.00000000	     22.99699049	    -10.27240531	      7.85690434	     -0.07624287	    -36.41802826	     13.93814512	      0.00000000	      0.00000000	      0.00000000	      0.00000000
      4.85000000	     52.25656412	     -6.32567388	     -0.29169036	     -0.57010932	      1.09724614	     -0.08880538	     21.44911894	    -13.66259373	     -3.34042742	    -69.84626290	    -11.77122586	      5.21592556	      0.00000000	     22.99914471	    -10.27548267	      7.85175681	     -0.07151891	    -36.41599010	     13.91833814	      0.00000000	      0.00000000	      0.00000000	      0.00000000
      4.86000000	     52.25827124	     -6.32771405	     -0.28927264	     -0.57010130	      1.09723914	     -0.08880720	     21.44710091	    -13.66269305	     -3.34379118	    -69.84690012	    -11.77262843	      5.21437334	      0.00000000	     23.00132010	    -10.27993808	      7.84666704	     -0.06698643	    -36.41154191	     13.90034577	      0.00000000	      0.00000000	      0.00000000	      0.00000000
      4.87000000	     52.25961262	     -6.32955858	     -0.28618133	     -0.57010457	      1.09723719	     -0.08879704	     21.44587474	    -13.66138993	     -3.34787539	    -69.84763786	    -11.77426915	      5.21297149	      0.00000000	     23.00332749	    -10.28422682	      7.84198358	     -0.06311353	    -36.40492879	     13.88516203	      0.00000000	      0.00000000	      0.00000000	      0.00000000
      4.88000000	     52.25950894	     -6.33065794	     -0.28263793	     -0.57012357	      1.09724146	     -0.08878467	     21.44677929	    -13.65940289	     -3.35210304	    -69.84799349	    -11.77645213	      5.21140385	      0.00000000	     23.00552344	    -10.28763851	      7.83802468	     -0.06056629	    -36.39654480	     13.87305221	      0.00000000	      0.00000000	      0.00000000	      0.00000000
      4.89000000	     52.25721005	     -6.33088821	     -0.27952506	     -0.57014449	      1.09723942	     -0.08877945	     21.45034994	    -13.65789977	     -3.35591385	    -69.84790707	    -11.77938027	      5.20942352	      0.00000000	     23.00863910	    -10.29027617	      7.83535012	     -0.06009624	    -36.38713787	     13.86366336	      0.00000000	      0.00000000	      0.00000000	      0.00000000
      4.90000000	     52.25277641	     -6.33033906	     -0.27793329	     -0.57014598	      1.09722752	     -0.08878262	     21.45622249	    -13.65767047	     -3.35889212	    -69.84764489	    -11.78303950	      5.20702828	      0.00000000	     23.01370640	    -10.29253816	      7.83474669	     -0.06200064	    -36.37787182	     13.85628412	      0.00000000	      0.00000000	      0.00000000	      0.00000000
      4.91000000	     52.24690623	     -6.32903628	     -0.27832002	     -0.57012718	      1.09722115	     -0.08878980	     21.46357872	    -13.65858720	     -3.36096716	    -69.84742716	    -11.78714922	      5.20453799	      0.00000000	     23.02125867	    -10.29466632	      7.83683438	     -0.06589042	    -36.37034063	     13.85021186	      0.00000000	      0.00000000	      0.00000000	      0.00000000
